<svg width="18" height="20" viewBox="0 0 18 20" fill="none" xmlns="http://www.w3.org/2000/svg">
<path d="M15.45 0C16.568 0 17.481 0.901 17.5 2.025V20L15.35 18.1L14.14 16.98L12.86 15.79L13.39 17.64H2.05C1.511 17.6387 0.994078 17.4258 0.610619 17.047C0.227159 16.6682 0.00786711 16.1539 0 15.615L0 2.06C0 0.932 0.901 0.019 2.015 0H15.45ZM7.32 4.78L7.22 4.66H7.163C6.89 4.669 5.677 4.76 4.41 5.71L4.362 5.802C4.111 6.292 2.97 8.674 2.97 11.54L2.99 11.573C3.132 11.79 4.009 12.996 6.02 13.06L6.315 12.699L6.69 12.23C5.524 11.881 5.024 11.179 4.95 11.066L4.94 11.05L4.981 11.077C5.026 11.107 5.108 11.157 5.22 11.22C5.23 11.23 5.24 11.24 5.26 11.25C5.29 11.27 5.32 11.28 5.35 11.3C5.6 11.44 5.85 11.55 6.08 11.64C6.49 11.8 6.98 11.96 7.55 12.07C8.279 12.206 9.13 12.257 10.058 12.095L10.14 12.08C10.61 12 11.09 11.86 11.59 11.65C11.94 11.52 12.33 11.33 12.74 11.06L12.724 11.085C12.628 11.225 12.104 11.918 10.93 12.25L11.095 12.457C11.348 12.771 11.59 13.06 11.59 13.06C13.8 12.99 14.65 11.54 14.65 11.54C14.65 8.32 13.21 5.71 13.21 5.71C11.972 4.781 10.785 4.673 10.477 4.661L10.4 4.66L10.26 4.82C11.768 5.281 12.56 5.923 12.72 6.063L12.75 6.09C11.2177 5.24492 9.4541 4.91534 7.72 5.15C7.66 5.15 7.61 5.16 7.55 5.17L7.494 5.175C7.114 5.214 6.297 5.354 5.28 5.8L5.135 5.868C4.953 5.954 4.821 6.021 4.75 6.058L4.69 6.09C4.69 6.09 5.503 5.316 7.266 4.796L7.32 4.78ZM6.94 8.39C7.51 8.39 7.97 8.89 7.96 9.5C7.96 10.11 7.51 10.61 6.94 10.61C6.38 10.61 5.92 10.11 5.92 9.5C5.92 8.89 6.37 8.39 6.94 8.39ZM10.59 8.39C11.16 8.39 11.61 8.89 11.61 9.5C11.61 10.11 11.16 10.61 10.59 10.61C10.03 10.61 9.57 10.11 9.57 9.5C9.57 8.89 10.02 8.39 10.59 8.39Z" fill="black"/>
</svg>
