<svg width="576" height="512" viewBox="0 0 576 512" fill="none" xmlns="http://www.w3.org/2000/svg">
<g clip-path="url(#clip0_505_13)">
<path d="M160 448C134.4 448 108.8 425.6 96 416C32 371.2 12.8 355.2 0 345.6V480C0 497.67 14.33 512 32 512H288C305.67 512 320 497.67 320 480V345.6C307.2 355.2 288 371.2 224 416C211.2 425.6 185.6 448 160 448ZM288 256H32C14.33 256 0 270.33 0 288V304C25.6 323.2 22.4 323.2 115.2 390.4C124.8 396.8 144 416 160 416C176 416 195.2 396.8 204.8 393.6C297.6 326.4 294.4 326.4 320 307.2V288C320 270.33 305.67 256 288 256ZM544 160H224C206.33 160 192 174.33 192 192V224H288C321.21 224 348.59 249.42 351.71 281.82L352 281.6V416H544C561.67 416 576 401.67 576 384V192C576 174.33 561.67 160 544 160ZM512 288H448V224H512V288ZM160 192C160 156.71 188.71 128 224 128H448V32C448 14.33 433.67 0 416 0H96C78.33 0 64 14.33 64 32V224H160V192Z" fill="black"/>
</g>
<defs>
<clipPath id="clip0_505_13">
<rect width="576" height="512" fill="white"/>
</clipPath>
</defs>
</svg>
